#!OML:ASF H:\Punching\Project 1\Capture day 1\Session 1\female.ASF
:FULLY-SPECIFIED
:DEGREES
604
root -0.22819 14.649 1.11078 13.6656 11.6966 -0.342975
lowerback -0.158531 4.07604 0.620205
upperback -6.13012 5.46576 -1.03293
thorax -6.11129 2.66674 -1.69448
lowerneck -7.83336 -6.59705 3.63994
upperneck 25.4035 -12.1741 9.34341
head 9.78256 -4.25598 1.33571
rclavicle 2.22596e-014 9.93923e-015
rhumerus 33.8623 0.211221 -65.2543
rradius 76.7597
rwrist -38.9354
rhand -15.2005 -31.3599
rfingers 7.12502
rthumb 10.9714 -61.0532
lclavicle 2.22596e-014 9.93923e-015
lhumerus 22.5257 -43.1267 78.7543
lradius 129.869
lwrist 13.8088
lhand -19.8549 9.70895
lfingers 7.12502
lthumb 6.47986 39.5898
rfemur 19.3733 -25.1353 8.90971
rtibia -2.54444e-014
rfoot -17.4735 -19.1059
rtoes -7.21824
lfemur -51.8693 -6.64909 -9.02006
ltibia 40.6431
lfoot -2.70082 -2.62177
ltoes -7.95432
605
root -0.230399 14.6369 1.10553 13.4407 12.2416 -0.364113
lowerback -0.08422 4.44819 1.01723
upperback -6.08203 5.97911 -1.04657
thorax -6.04707 2.9025 -1.95277
lowerneck -7.70279 -6.95758 3.28034
upperneck 25.6279 -12.6276 9.34427
head 9.87654 -4.48188 1.34957
rclavicle -1.79993e-014 -2.28602e-015
rhumerus 36.9239 -0.778665 -64.9225
rradius 68.569
rwrist -37.331
rhand -16.0813 -31.9263
rfingers 7.12502
rthumb 10.1218 -61.6628
lclavicle -1.79993e-014 -2.28602e-015
lhumerus 22.6662 -42.9931 78.3807
lradius 129.456
lwrist 13.6803
lhand -19.7417 9.68931
lfingers 7.12502
lthumb 6.58919 39.5668
rfemur 19.8624 -25.5774 8.79745
rtibia -7.95139e-014
rfoot -17.6218 -18.8969
rtoes -7.15182
lfemur -51.8953 -6.87976 -9.09812
ltibia 40.7698
lfoot -2.65498 -2.85669
ltoes -7.91979
606
root -0.231519 14.6257 1.09977 13.1961 12.6553 -0.448752
lowerback 0.0152911 4.80228 1.47506
upperback -6.03996 6.47048 -1.06648
thorax -5.99048 3.12416 -2.25086
lowerneck -7.59323 -7.23926 3.02491
upperneck 25.8958 -12.991 9.32424
head 9.98152 -4.65522 1.3483
rclavicle -3.056e-014 4.47266e-015
rhumerus 39.8148 -1.73068 -64.8137
rradius 60.3889
rwrist -35.2607
rhand -17.2719 -32.28
rfingers 7.12502
rthumb 8.97293 -62.0691
lclavicle -3.056e-014 4.47266e-015
lhumerus 22.7966 -42.8514 78.0245
lradius 129.076
lwrist 13.4936
lhand -19.617 9.71446
lfingers 7.12502
lthumb 6.70959 39.5882
rfemur 20.2974 -25.8844 8.74314
rtibia 2.8625e-014
rfoot -17.7242 -18.7177
rtoes -7.20784
lfemur -51.8931 -7.01692 -9.11766
ltibia 40.9454
lfoot -2.65442 -3.04829
ltoes -7.89225
607
root -0.231849 14.616 1.09394 12.9462 12.9279 -0.581312
lowerback 0.133685 5.13992 1.96699
upperback -6.00006 6.94111 -1.09994
thorax -5.93492 3.33368 -2.58097
lowerneck -7.53402 -7.44657 2.87248
upperneck 26.1925 -13.2745 9.29946
head 10.0987 -4.77899 1.33538
rclavicle 6.44621e-014 2.01766e-014
rhumerus 42.4259 -2.76517 -65.0663
rradius 52.6293
rwrist -32.6348
rhand -18.4836 -32.3872
rfingers 7.12502
rthumb 7.80359 -62.2232
lclavicle 6.44621e-014 2.01766e-014
lhumerus 22.9469 -42.7058 77.6755
lradius 128.729
lwrist 13.2523
lhand -19.4925 9.77468
lfingers 7.12502
lthumb 6.82969 39.6445
rfemur 20.6601 -26.0542 8.74136
rtibia -4.13472e-014
rfoot -17.7754 -18.5767
rtoes -7.38298
lfemur -51.8628 -7.05919 -9.08997
ltibia 41.1535
lfoot -2.69493 -3.19229
ltoes -7.88774
608
root -0.231835 14.6083 1.08846 12.7092 13.0538 -0.742259
lowerback 0.266176 5.45987 2.46112
upperback -5.96963 7.38842 -1.15346
thorax -5.88808 3.53106 -2.93255
lowerneck -7.5133 -7.5829 2.81637
upperneck 26.4975 -13.4823 9.28655
head 10.2196 -4.85561 1.31785
rclavicle -5.83821e-014 -4.47266e-015
rhumerus 44.6504 -3.98516 -65.8327
rradius 45.7687
rwrist -29.3959
rhand -19.4788 -32.1002
rfingers 7.12502
rthumb 6.84297 -61.9696
lclavicle -5.83821e-014 -4.47266e-015
lhumerus 23.1144 -42.5618 77.3344
lradius 128.422
lwrist 12.9699
lhand -19.3717 9.87531
lfingers 7.12502
lthumb 6.94633 39.7413
rfemur 20.932 -26.0901 8.78451
rtibia 6.36111e-015
rfoot -17.7844 -18.4787
rtoes -7.64673
lfemur -51.8069 -7.00963 -9.02773
ltibia 41.3719
lfoot -2.76518 -3.28263
ltoes -7.89651
609
root -0.231829 14.6031 1.0836 12.503 13.0359 -0.904873
lowerback 0.408801 5.75322 2.91846
upperback -5.95534 7.79911 -1.23319
thorax -5.85998 3.71103 -3.29083
lowerneck -7.52726 -7.64719 2.86205
upperneck 26.807 -13.6125 9.28351
head 10.3411 -4.88427 1.29476
rclavicle -3.46367e-014 3.27995e-015
rhumerus 46.4142 -5.43266 -67.2225
rradius 40.2484
rwrist -25.54
rhand -20.1324 -31.3827
rfingers 7.12502
rthumb 6.21201 -61.2716
lclavicle -3.46367e-014 3.27995e-015
lhumerus 23.2939 -42.4135 76.9925
lradius 128.163
lwrist 12.6725
lhand -19.2692 9.98686
lfingers 7.12502
lthumb 7.04527 39.8496
rfemur 21.1033 -26.0026 8.85424
rtibia 9.54166e-015
rfoot -17.7563 -18.4264
rtoes -7.96417
lfemur -51.7259 -6.8833 -8.94982
ltibia 41.5757
lfoot -2.85312 -3.31126
ltoes -7.91907
610
root -0.232204 14.6008 1.07954 12.3419 12.8851 -1.04764
lowerback 0.550519 6.01548 3.31154
upperback -5.9605 8.16553 -1.34704
thorax -5.85203 3.87073 -3.64849
lowerneck -7.56216 -7.64449 3.00915
upperneck 27.1113 -13.6717 9.29661
head 10.4577 -4.86837 1.26847
rclavicle 4.8081e-015 1.60022e-014
rhumerus 47.6324 -6.99269 -69.0463
rradius 36.4361
rwrist -21.3946
rhand -20.431 -30.3752
rfingers 7.12502
rthumb 5.92372 -60.2724
lclavicle 4.8081e-015 1.60022e-014
lhumerus 23.4763 -42.2762 76.6508
lradius 127.966
lwrist 12.3819
lhand -19.1948 10.0964
lfingers 7.12502
lthumb 7.11707 39.9567
rfemur 21.1679 -25.8084 8.93691
rtibia 1.90833e-014
rfoot -17.6952 -18.4234
rtoes -8.30508
lfemur -51.6232 -6.69894 -8.8697
ltibia 41.7444
lfoot -2.94822 -3.27492
ltoes -7.94886
611
root -0.232998 14.6013 1.07629 12.2359 12.6172 -1.15636
lowerback 0.668683 6.22696 3.60131
upperback -5.97571 8.45929 -1.47527
thorax -5.8536 3.99877 -3.96051
lowerneck -7.62628 -7.56442 3.24886
upperneck 27.4163 -13.638 9.29657
head 10.5702 -4.80146 1.23244
rclavicle -5.11133e-014 2.13694e-014
rhumerus 48.221 -8.32182 -70.8142
rradius 34.5559
rwrist -17.6518
rhand -20.3503 -29.343
rfingers 7.12502
rthumb 6.00161 -59.238
lclavicle -5.11133e-014 2.13694e-014
lhumerus 23.6412 -42.1169 76.3334
lradius 127.84
lwrist 12.1167
lhand -19.1434 10.1824
lfingers 7.12502
lthumb 7.1667 40.0411
rfemur 21.1264 -25.5255 9.02183
rtibia 1.90833e-014
rfoot -17.6085 -18.4736
rtoes -8.62595
lfemur -51.5063 -6.47901 -8.79532
ltibia 41.8667
lfoot -3.04239 -3.17033
ltoes -7.99418
